Exact Audio Copy V0.99 prebeta 5 from 4. May 2009

EAC extraction logfile from 5. November 2009, 13:47

Various / Renaissance: The Mix Collection (Mixed by M.A.N.D.Y.)  (Disc 1)

Used drive  : HL-DT-STDVDRAM GSA-T20L   Adapter: 0  ID: 0

Read mode               : Secure
Utilize accurate stream : Yes
Defeat audio cache      : Yes
Make use of C2 pointers : No

Read offset correction                      : 667
Overread into Lead-In and Lead-Out          : No
Fill up missing offset samples with silence : Yes
Delete leading and trailing silent blocks   : No
Null samples used in CRC calculations       : Yes
Used interface                              : Native Win32 interface for Win NT & 2000
Gap handling                                : Appended to previous track

Used output format              : User Defined Encoder
Selected bitrate                : 320 kBit/s
Quality                         : High
Add ID3 tag                     : No
Command line compressor         : C:Program FilesExact Audio CopyFlacflac.exe
Additional command line options : -V -8 -T "artist=%a" -T "title=%t" -T "album=%g" -T "date=%y" -T "tracknumber=%n" -T "genre=%m" %s


TOC of the extracted CD

     Track |   Start  |  Length  | Start sector | End sector 
    ---------------------------------------------------------
        1  |  0:00.00 |  1:56.40 |         0    |     8739   
        2  |  1:56.40 |  1:33.27 |      8740    |    15741   
        3  |  3:29.67 |  4:39.47 |     15742    |    36713   
        4  |  8:09.39 |  2:48.46 |     36714    |    49359   
        5  | 10:58.10 |  2:53.17 |     49360    |    62351   
        6  | 13:51.27 |  6:06.24 |     62352    |    89825   
        7  | 19:57.51 |  3:42.16 |     89826    |   106491   
        8  | 23:39.67 |  5:14.67 |    106492    |   130108   
        9  | 28:54.59 |  1:30.41 |    130109    |   136899   
       10  | 30:25.25 |  4:24.09 |    136900    |   156708   
       11  | 34:49.34 |  4:25.64 |    156709    |   176647   
       12  | 39:15.23 |  3:46.66 |    176648    |   193663   
       13  | 43:02.14 |  3:17.49 |    193664    |   208487   
       14  | 46:19.63 |  5:43.35 |    208488    |   234247   
       15  | 52:03.23 |  7:17.72 |    234248    |   267094   
       16  | 59:21.20 |  5:30.19 |    267095    |   291863   
       17  | 64:51.39 |  4:05.49 |    291864    |   310287   


Track  1

     Filename G:MusikkAlbumM.A.N.D.Y. - Renaissance The Mix Collection (2009) [FLAC]One - Upside Down 1 - Shed - Waved Mind.wav

     Pre-gap length  0:00:02.00

     Peak level 96.1 %
     Track quality 99.9 %
     Test CRC 672D2754
     Copy CRC 672D2754
     Track not present in AccurateRip database
     Copy OK

Track  2

     Filename G:MusikkAlbumM.A.N.D.Y. - Renaissance The Mix Collection (2009) [FLAC]One - Upside Down 2 - dOP - Nature Boy.wav

     Peak level 99.3 %
     Track quality 100.0 %
     Test CRC 0005544C
     Copy CRC 0005544C
     Track not present in AccurateRip database
     Copy OK

Track  3

     Filename G:MusikkAlbumM.A.N.D.Y. - Renaissance The Mix Collection (2009) [FLAC]One - Upside Down 3 - Toby Deschamps - Sit Down Relax.wav

     Peak level 99.4 %
     Track quality 100.0 %
     Test CRC 6087A2CB
     Copy CRC 6087A2CB
     Track not present in AccurateRip database
     Copy OK

Track  4

     Filename G:MusikkAlbumM.A.N.D.Y. - Renaissance The Mix Collection (2009) [FLAC]One - Upside Down 4 - Ryan Crosson - Under The Willow.wav

     Peak level 99.4 %
     Track quality 100.0 %
     Test CRC FC237B3E
     Copy CRC FC237B3E
     Track not present in AccurateRip database
     Copy OK

Track  5

     Filename G:MusikkAlbumM.A.N.D.Y. - Renaissance The Mix Collection (2009) [FLAC]One - Upside Down 5 - M.A.N.D.Y. vs. Lopazz - Full Off....wav

     Peak level 99.4 %
     Track quality 100.0 %
     Test CRC 28686EC2
     Copy CRC 28686EC2
     Track not present in AccurateRip database
     Copy OK

Track  6

     Filename G:MusikkAlbumM.A.N.D.Y. - Renaissance The Mix Collection (2009) [FLAC]One - Upside Down 6 - Wareika - Ascending Descending.wav

     Peak level 99.4 %
     Track quality 100.0 %
     Test CRC C3001035
     Copy CRC C3001035
     Track not present in AccurateRip database
     Copy OK

Track  7

     Filename G:MusikkAlbumM.A.N.D.Y. - Renaissance The Mix Collection (2009) [FLAC]One - Upside Down 7 - Crowdpleaser & Ly Sander - Walking Home.wav

     Peak level 99.4 %
     Track quality 100.0 %
     Test CRC 889FD9BE
     Copy CRC 889FD9BE
     Track not present in AccurateRip database
     Copy OK

Track  8

     Filename G:MusikkAlbumM.A.N.D.Y. - Renaissance The Mix Collection (2009) [FLAC]One - Upside Down 8 - Bodycode - Immune.wav

     Peak level 99.4 %
     Track quality 100.0 %
     Test CRC 69DC48EB
     Copy CRC 69DC48EB
     Track not present in AccurateRip database
     Copy OK

Track  9

     Filename G:MusikkAlbumM.A.N.D.Y. - Renaissance The Mix Collection (2009) [FLAC]One - Upside Down 9 - Chica and The Folder - Perfect Day [Sometimes] (Pikaya Mix).wav

     Peak level 99.4 %
     Track quality 100.0 %
     Test CRC D5731B2D
     Copy CRC D5731B2D
     Track not present in AccurateRip database
     Copy OK

Track 10

     Filename G:MusikkAlbumM.A.N.D.Y. - Renaissance The Mix Collection (2009) [FLAC]One - Upside Down10 - Lopazz - Perfume Laboratory.wav

     Peak level 99.4 %
     Track quality 100.0 %
     Test CRC 9E351344
     Copy CRC 9E351344
     Track not present in AccurateRip database
     Copy OK

Track 11

     Filename G:MusikkAlbumM.A.N.D.Y. - Renaissance The Mix Collection (2009) [FLAC]One - Upside Down11 - Sebastien Tellier - La Ballade Du Georges.wav

     Peak level 99.4 %
     Track quality 100.0 %
     Test CRC 51D2253A
     Copy CRC 51D2253A
     Track not present in AccurateRip database
     Copy OK

Track 12

     Filename G:MusikkAlbumM.A.N.D.Y. - Renaissance The Mix Collection (2009) [FLAC]One - Upside Down12 - Holger Zilske - To Them To Me.wav

     Peak level 99.4 %
     Track quality 100.0 %
     Test CRC 7D7A421F
     Copy CRC 7D7A421F
     Track not present in AccurateRip database
     Copy OK

Track 13

     Filename G:MusikkAlbumM.A.N.D.Y. - Renaissance The Mix Collection (2009) [FLAC]One - Upside Down13 - Bronnt Industries Kapital - Threnody For The Victims Of Lucio Fulci.wav

     Peak level 99.4 %
     Track quality 100.0 %
     Test CRC 5F9B48A9
     Copy CRC 5F9B48A9
     Track not present in AccurateRip database
     Copy OK

Track 14

     Filename G:MusikkAlbumM.A.N.D.Y. - Renaissance The Mix Collection (2009) [FLAC]One - Upside Down14 - Bomb The Bass feat. Mark Lanegan - Black River (Gui Boratto Remix).wav

     Peak level 99.4 %
     Track quality 100.0 %
     Test CRC 585B6F82
     Copy CRC 585B6F82
     Track not present in AccurateRip database
     Copy OK

Track 15

     Filename G:MusikkAlbumM.A.N.D.Y. - Renaissance The Mix Collection (2009) [FLAC]One - Upside Down15 - Claude VonStroke & Christian Martin - Groundhog Day.wav

     Peak level 100.0 %
     Track quality 100.0 %
     Test CRC CAE3E80B
     Copy CRC CAE3E80B
     Track not present in AccurateRip database
     Copy OK

Track 16

     Filename G:MusikkAlbumM.A.N.D.Y. - Renaissance The Mix Collection (2009) [FLAC]One - Upside Down16 - 51 Days - Paper Moon.wav

     Peak level 99.4 %
     Track quality 100.0 %
     Test CRC 365CB0E5
     Copy CRC 365CB0E5
     Track not present in AccurateRip database
     Copy OK

Track 17

     Filename G:MusikkAlbumM.A.N.D.Y. - Renaissance The Mix Collection (2009) [FLAC]One - Upside Down17 - Schneider TM & Kpt. Michi.gan - The Light 3000.wav

     Peak level 99.4 %
     Track quality 100.0 %
     Test CRC 253ADB34
     Copy CRC 253ADB34
     Track not present in AccurateRip database
     Copy OK


None of the tracks are present in the AccurateRip database

No errors occurred

End of status report
